<svg width="9" height="14" viewBox="0 0 9 14" fill="none" xmlns="http://www.w3.org/2000/svg">
<path d="M8.97062 9.09786C8.95083 9.05526 8.89543 8.98555 8.84795 8.94294C8.76485 8.86935 8.69758 8.86548 7.37986 8.85386L5.99883 8.84224L5.99913 7.49431C5.99913 2.01011 5.98726 0.290477 5.95164 0.213017C5.85667 0.0116197 5.7894 2.53063e-07 4.49938 1.96674e-07C3.83855 1.67788e-07 3.26872 0.0154923 3.21332 0.0387304C2.9759 0.123937 2.99172 -0.367928 2.99172 7.49043L2.99142 8.84224L1.60643 8.85386L0.221444 8.86548L0.122516 8.96231C-0.0120255 9.09786 -0.0397253 9.2644 0.0592023 9.4077C0.18583 9.60136 4.2577 13.8965 4.36454 13.9508C4.6178 14.0824 4.57823 14.1212 6.79421 11.7393C7.9299 10.5193 8.89148 9.47355 8.93105 9.4077C9.01019 9.28377 9.0181 9.21793 8.97062 9.09786Z" fill="#284447"/>
</svg>
