<svg width="12" height="14" viewBox="0 0 12 14" fill="none" xmlns="http://www.w3.org/2000/svg">
<path d="M0.758233 0.0801201C0.424096 0.214722 0.189558 0.455081 0.0674699 0.785174L0 0.964643L0.0064257 7.04414L0.0160643 13.1236L0.109237 13.3127C0.298795 13.7005 0.681125 13.9569 1.11486 13.9953C1.38153 14.0178 1.60964 13.9601 1.85703 13.8062C1.9502 13.7486 2.91406 13.0403 4 12.2327C5.18554 11.3546 6.00161 10.7681 6.04659 10.7681C6.08835 10.7681 6.9237 11.3706 8.15422 12.2936C9.27872 13.1332 10.2618 13.8511 10.3422 13.8864C10.6602 14.0274 11.1325 13.9889 11.441 13.7966C11.6177 13.6845 11.8458 13.4121 11.9261 13.2102L12 13.0275V6.98645V0.945415L11.9261 0.759536C11.8265 0.515972 11.5534 0.221131 11.3157 0.105759L11.1325 0.0160246L6.04016 0.00961494L0.947791 0L0.758233 0.0801201ZM10.9622 1.08002C11.0169 1.12809 11.0201 1.35563 11.0201 6.98965C11.0201 12.1622 11.0137 12.8512 10.9719 12.8961C10.8402 13.0243 10.8787 13.0499 8.74859 11.4539C7.6241 10.6143 6.62169 9.88679 6.5253 9.84192C6.37108 9.77141 6.30361 9.7586 6.04016 9.7586C5.77671 9.7586 5.70924 9.77141 5.55823 9.84192C5.46185 9.88679 4.45944 10.6111 3.33494 11.4539C2.20723 12.2936 1.25622 12.9794 1.22088 12.9794C1.18554 12.9794 1.12771 12.9506 1.09237 12.9153C1.02811 12.8512 1.02811 12.8096 1.02811 7.00888C1.02811 1.77546 1.03454 1.16014 1.07952 1.09604L1.12771 1.02553H6.01446C10.5189 1.02553 10.9076 1.02874 10.9622 1.08002Z" fill="#377DFF"/>
</svg>
