<svg width="12" height="14" viewBox="0 0 12 14" fill="none" xmlns="http://www.w3.org/2000/svg">
<path d="M0.758233 0.0801201C0.424096 0.214722 0.189558 0.455081 0.0674699 0.785174L0 0.964643L0.0064257 7.04414L0.0160643 13.1236L0.109237 13.3127C0.298795 13.7005 0.681125 13.9569 1.11486 13.9953C1.38153 14.0178 1.60964 13.9601 1.85703 13.8062C1.9502 13.7486 2.91406 13.0403 4 12.2327C5.18554 11.3546 6.00161 10.7681 6.04659 10.7681C6.08835 10.7681 6.92369 11.3706 8.15422 12.2936C9.27872 13.1332 10.2618 13.8511 10.3422 13.8864C10.6602 14.0274 11.1325 13.9889 11.441 13.7966C11.6177 13.6845 11.8458 13.4121 11.9261 13.2102L12 13.0275V6.98645V0.945415L11.9261 0.759536C11.8265 0.515971 11.5534 0.221131 11.3157 0.105759L11.1325 0.0160246L6.04016 0.00961494L0.947791 0L0.758233 0.0801201Z" fill="#4a8aff"/>
</svg>